<?xml version="1.0" standalone="no"?>
<!DOCTYPE svg PUBLIC "-//W3C//DTD SVG 20010904//EN"
 "http://www.w3.org/TR/2001/REC-SVG-20010904/DTD/svg10.dtd">
<svg version="1.0" xmlns="http://www.w3.org/2000/svg"
 width="500.000000pt" height="500.000000pt" viewBox="0 0 500.000000 500.000000"
 preserveAspectRatio="xMidYMid meet">

<g transform="translate(0.000000,500.000000) scale(0.100000,-0.100000)"
fill="#000000" stroke="none">
<path d="M2403 3141 c-50 -23 -63 -45 -63 -106 0 -61 32 -94 122 -124 88 -29
113 -49 104 -84 -3 -15 -16 -32 -28 -38 -31 -17 -120 -14 -157 5 -30 16 -31
16 -46 -13 l-15 -29 46 -18 c89 -34 199 -19 246 32 25 29 32 87 14 121 -19 37
-42 53 -134 87 -74 28 -98 52 -87 85 6 21 46 41 80 41 13 0 45 -7 71 -16 25
-8 47 -14 49 -12 2 2 6 15 10 29 5 21 2 27 -21 38 -51 23 -144 24 -191 2z"/>
<path d="M380 2935 l0 -217 123 4 c95 3 128 7 148 21 54 36 65 116 23 166 -14
17 -33 31 -42 31 -14 1 -14 4 4 18 50 42 59 113 20 159 -24 28 -26 28 -150 31
l-126 4 0 -217z m212 143 c30 -24 31 -56 4 -83 -21 -21 -34 -25 -86 -25 l-60
0 0 60 0 60 63 0 c35 0 70 -6 79 -12z m20 -185 c18 -16 24 -58 10 -80 -12 -20
-60 -33 -118 -33 l-54 0 0 65 0 65 72 0 c52 0 76 -4 90 -17z"/>
<path d="M1310 2945 l0 -205 26 -11 c15 -5 52 -12 83 -15 108 -10 185 57 185
161 0 98 -68 160 -169 153 l-55 -3 0 63 0 62 -35 0 -35 0 0 -205z m193 5 c32
-25 42 -69 27 -116 -15 -44 -63 -68 -116 -58 l-34 6 0 88 c0 61 4 90 13 93 30
13 86 6 110 -13z"/>
<path d="M2690 2935 l0 -215 35 0 34 0 3 123 3 122 45 3 c76 5 84 -8 88 -137
l4 -111 29 0 29 0 0 121 c0 66 -5 129 -10 140 -17 31 -64 49 -130 49 l-60 0 0
60 0 60 -35 0 -35 0 0 -215z"/>
<path d="M811 3021 c-16 -4 -28 -17 -33 -36 -9 -36 -7 -38 26 -25 46 17 114
12 136 -10 37 -37 26 -50 -44 -50 -111 0 -146 -23 -146 -95 0 -74 80 -107 215
-88 l60 8 0 115 c-1 130 -9 154 -60 176 -35 14 -112 17 -154 5z m147 -208 c-3
-38 -4 -38 -50 -41 -54 -3 -88 11 -88 36 0 31 22 42 83 42 l58 0 -3 -37z"/>
<path d="M1733 3015 c-40 -17 -70 -65 -79 -122 -8 -57 26 -129 76 -158 43 -25
131 -25 177 -1 30 15 32 18 21 42 -8 17 -17 23 -27 18 -72 -29 -109 -27 -148
9 -45 41 -32 47 93 47 l117 0 -7 42 c-4 24 -15 56 -24 73 -34 58 -127 82 -199
50z m125 -61 c12 -8 22 -24 22 -35 0 -17 -7 -19 -75 -19 -82 0 -94 11 -55 50
24 24 77 26 108 4z"/>
<path d="M3096 3008 c-55 -32 -78 -79 -73 -146 5 -65 28 -100 90 -131 37 -18
56 -22 90 -17 92 14 141 71 141 163 0 88 -57 144 -151 150 -47 3 -66 -1 -97
-19z m135 -48 c51 -28 61 -117 16 -157 -32 -30 -61 -36 -100 -19 -42 17 -57
42 -57 91 0 70 79 117 141 85z"/>
<path d="M3433 3018 l-33 -11 0 -203 0 -204 35 0 35 0 0 58 0 59 58 -1 c76 -1
119 24 151 87 19 38 22 56 17 92 -8 53 -46 102 -93 121 -37 16 -123 17 -170 2z
m160 -68 c56 -44 40 -150 -25 -168 -18 -5 -48 -7 -66 -4 l-32 4 0 87 c0 48 3
91 7 94 15 15 91 6 116 -13z"/>
<path d="M3783 3018 l-33 -11 0 -203 0 -204 35 0 35 0 0 58 0 59 58 -1 c76 -1
119 24 151 87 19 38 22 56 17 92 -8 53 -46 102 -93 121 -37 16 -123 17 -170 2z
m160 -68 c56 -44 40 -150 -25 -168 -18 -5 -48 -7 -66 -4 l-32 4 0 87 c0 48 3
91 7 94 15 15 91 6 116 -13z"/>
<path d="M4173 3015 c-40 -17 -70 -65 -79 -122 -8 -57 26 -129 76 -158 43 -25
131 -25 177 -1 30 15 32 18 21 42 -8 17 -17 23 -27 18 -72 -29 -109 -27 -148
9 -45 41 -32 47 93 47 l117 0 -7 42 c-4 24 -15 56 -24 73 -34 58 -127 82 -199
50z m125 -61 c12 -8 22 -24 22 -35 0 -17 -7 -19 -75 -19 -82 0 -94 11 -55 50
24 24 77 26 108 4z"/>
<path d="M1108 3013 c-16 -4 -18 -20 -18 -149 l0 -144 30 0 30 0 0 114 c0 127
0 126 71 126 37 0 39 2 39 30 l0 30 -67 -1 c-38 -1 -76 -3 -85 -6z"/>
<path d="M2033 3013 c-23 -4 -23 -7 -23 -149 l0 -144 35 0 34 0 3 118 3 117
48 3 c45 3 47 5 47 33 l0 29 -62 -1 c-35 -1 -73 -4 -85 -6z"/>
<path d="M4473 3013 c-23 -4 -23 -7 -23 -149 l0 -144 35 0 35 0 0 114 c0 127
0 126 71 126 37 0 39 2 39 30 l0 30 -67 -1 c-38 -1 -78 -4 -90 -6z"/>
<path d="M1130 2505 c0 -78 3 -95 15 -95 11 0 15 11 15 40 0 39 1 40 35 40 24
0 35 5 35 15 0 10 -11 15 -35 15 -31 0 -35 3 -35 25 0 23 4 25 45 25 33 0 45
4 45 15 0 12 -13 15 -60 15 l-60 0 0 -95z"/>
<path d="M1330 2581 c0 -15 6 -21 21 -21 25 0 22 33 -4 38 -12 2 -17 -3 -17
-17z"/>
<path d="M1960 2575 c0 -13 -8 -29 -17 -35 -17 -10 -17 -10 0 -20 11 -8 17
-23 17 -48 0 -21 5 -43 12 -50 19 -19 66 -15 78 7 14 27 -7 39 -26 15 -14 -18
-14 -18 -29 1 -25 32 -15 69 18 73 15 2 27 7 27 12 0 5 -12 10 -27 12 -22 2
-29 9 -31 31 -4 34 -22 36 -22 2z"/>
<path d="M2250 2505 l0 -95 43 0 c70 0 112 47 72 80 -11 9 -13 16 -5 24 17 17
11 54 -12 70 -12 9 -39 16 -60 16 l-38 0 0 -95z m85 40 c0 -14 -8 -21 -27 -23
-24 -3 -28 0 -28 23 0 23 4 26 28 23 19 -2 27 -9 27 -23z m10 -80 c0 -15 -8
-21 -32 -23 -30 -3 -33 -1 -33 23 0 24 3 26 33 23 24 -2 32 -8 32 -23z"/>
<path d="M2730 2506 l0 -93 50 -2 c40 0 52 3 65 21 22 32 19 65 -10 94 -18 18
-31 23 -50 18 -23 -6 -25 -3 -25 25 0 21 -5 31 -15 31 -12 0 -15 -17 -15 -94z
m90 -1 c26 -31 -8 -83 -45 -69 -15 6 -21 64 -8 77 11 12 40 8 53 -8z"/>
<path d="M1510 2543 c-8 -3 -18 -11 -22 -17 -5 -8 -8 -7 -8 2 0 6 -7 12 -15
12 -12 0 -15 -14 -15 -65 0 -51 3 -65 15 -65 11 0 15 12 15 44 0 46 19 72 45
62 11 -4 15 -20 15 -56 0 -38 4 -50 15 -50 22 0 21 103 -1 124 -16 17 -20 18
-44 9z"/>
<path d="M1643 2540 c-44 -18 -56 -77 -23 -110 30 -30 125 -23 106 9 -5 7 -14
7 -30 0 -17 -8 -29 -8 -45 0 -36 20 -23 31 34 31 60 0 69 11 38 48 -22 25 -51
33 -80 22z m57 -35 c11 -13 7 -15 -30 -15 -37 0 -41 2 -30 15 7 8 20 15 30 15
10 0 23 -7 30 -15z"/>
<path d="M1792 2539 c-18 -7 -23 -15 -20 -36 3 -24 9 -29 46 -37 23 -5 42 -13
42 -18 0 -15 -29 -20 -59 -10 -23 8 -31 7 -35 -3 -6 -17 15 -25 63 -25 40 0
61 14 61 41 0 21 -13 30 -53 38 -17 4 -33 13 -35 20 -4 11 4 13 37 8 30 -4 41
-2 41 8 0 22 -49 30 -88 14z"/>
<path d="M2438 2543 c-34 -9 -20 -30 18 -29 46 1 56 -18 11 -21 -41 -3 -71
-37 -57 -64 8 -15 21 -18 65 -17 l55 2 0 52 c0 29 -5 56 -13 62 -16 13 -57 21
-79 15z m62 -83 c0 -14 -37 -31 -55 -24 -12 5 -13 9 -4 20 13 16 59 19 59 4z"/>
<path d="M2648 2536 c-16 -8 -28 -11 -28 -5 0 5 -11 9 -25 9 -27 0 -34 -15
-10 -24 9 -3 15 -19 15 -41 0 -24 -4 -35 -15 -35 -8 0 -15 -7 -15 -15 0 -11
11 -15 40 -15 29 0 40 4 40 15 0 8 -7 15 -16 15 -13 0 -15 6 -10 28 8 31 31
52 59 52 10 0 17 5 15 12 -6 18 -20 19 -50 4z"/>
<path d="M2923 2540 c-44 -18 -54 -78 -17 -114 27 -27 117 -15 100 13 -5 8
-13 8 -27 0 -24 -12 -59 -3 -59 17 0 10 13 14 50 14 43 0 50 3 50 19 0 20 -44
61 -64 60 -6 0 -21 -4 -33 -9z m57 -35 c11 -13 7 -15 -24 -15 -34 0 -44 8 -29
23 11 12 40 8 53 -8z"/>
<path d="M3128 2536 c-16 -8 -28 -11 -28 -5 0 5 -11 9 -25 9 -27 0 -34 -15
-10 -24 9 -3 15 -19 15 -41 0 -24 -4 -35 -15 -35 -8 0 -15 -7 -15 -15 0 -11
11 -15 40 -15 29 0 40 4 40 15 0 8 -7 15 -16 15 -13 0 -15 6 -10 28 8 31 31
52 59 52 10 0 17 5 15 12 -6 18 -20 19 -50 4z"/>
<path d="M3240 2537 c-14 -7 -26 -22 -28 -35 -3 -18 4 -24 42 -34 26 -7 45
-17 43 -23 -4 -11 -43 -12 -69 0 -13 5 -18 3 -18 -8 0 -18 21 -27 60 -27 43 0
60 10 60 35 0 28 -16 42 -55 47 -41 4 -32 23 10 22 40 -1 48 20 13 30 -30 8
-29 8 -58 -7z"/>
<path d="M1300 2530 c0 -5 7 -10 15 -10 11 0 15 -11 15 -39 0 -25 -5 -41 -15
-45 -30 -11 -14 -26 30 -26 33 0 45 4 45 15 0 8 -7 15 -15 15 -11 0 -15 12
-15 50 0 49 -1 50 -30 50 -16 0 -30 -4 -30 -10z"/>
</g>
</svg>
